<?xml version="1.0" standalone="no"?>
 <!DOCTYPE svg PUBLIC "-//W3C//DTD SVG 1.1//EN" 
 "http://www.w3.org/Graphics/SVG/1.1/DTD/svg11.dtd"> 
<svg
  xmlns:svg="http://www.w3.org/2000/svg"
  xmlns="http://www.w3.org/2000/svg"
  xmlns:xlink="http://www.w3.org/1999/xlink"
  version="1.1"
  width="29.700220cm" height="21.000720cm" viewBox="0 0 297002200 210007200">
<title>SVG Picture created as v2-B_Silkscreen.svg date 2022/02/09 23:49:47 </title>
  <desc>Picture generated by PCBNEW </desc>
<g style="fill:#000000; fill-opacity:1.000000;stroke:#000000; stroke-opacity:1.000000;
stroke-linecap:round; stroke-linejoin:round;"
 transform="translate(0 0) scale(1 1)">
</g>
<g style="fill:#000000; fill-opacity:0.0; 
stroke:#000000; stroke-width:0.000000; stroke-opacity:1; 
stroke-linecap:round; stroke-linejoin:round;">
</g>
<g style="fill:#000000; fill-opacity:0.0; 
stroke:#000000; stroke-width:150000.000000; stroke-opacity:1; 
stroke-linecap:round; stroke-linejoin:round;">
<g transform="rotate(-90.000000 121600000.000000 60200000.000000)">
<text x="121600000.000000" y="60700000.000000"
transform="scale(-1 1) translate(-243200000.000000 0)"
textLength="2757381.000000" font-size="1333333.000000" lengthAdjust="spacingAndGlyphs"
text-anchor="middle" opacity="0">U15</text>
</g>
<g class="stroked-text"><desc>U15</desc>
<path d="M121052380 58961904
L121861904 58961904
L121957142 59009523
L122004761 59057142
L122052380 59152380
L122052380 59342857
L122004761 59438095
L121957142 59485714
L121861904 59533333
L121052380 59533333
" />
<path d="M122052380 60533333
L122052380 59961904
" />
<path d="M122052380 60247619
L121052380 60247619
L121195238 60152380
L121290476 60057142
L121338095 59961904
" />
<path d="M121052380 61438095
L121052380 60961904
L121528571 60914285
L121480952 60961904
L121433333 61057142
L121433333 61295238
L121480952 61390476
L121528571 61438095
L121623809 61485714
L121861904 61485714
L121957142 61438095
L122004761 61390476
L122052380 61295238
L122052380 61057142
L122004761 60961904
L121957142 60914285
" />
</g><g transform="rotate(-90.000000 62670000.000000 79850000.000000)">
<text x="62670000.000000" y="80350000.000000"
transform="scale(-1 1) translate(-125340000.000000 0)"
textLength="1757381.000000" font-size="1333333.000000" lengthAdjust="spacingAndGlyphs"
text-anchor="middle" opacity="0">C7</text>
</g>
<g class="stroked-text"><desc>C7</desc>
<path d="M63027142 79683333
L63074761 79635714
L63122380 79492857
L63122380 79397619
L63074761 79254761
L62979523 79159523
L62884285 79111904
L62693809 79064285
L62550952 79064285
L62360476 79111904
L62265238 79159523
L62170000 79254761
L62122380 79397619
L62122380 79492857
L62170000 79635714
L62217619 79683333
" />
<path d="M62122380 80016666
L62122380 80683333
L63122380 80254761
" />
</g><text x="46050000.000000" y="87720000.000000"
transform="scale(-1 1) translate(-92100000.000000 0)"
textLength="2709762.000000" font-size="1333333.000000" lengthAdjust="spacingAndGlyphs"
text-anchor="middle" opacity="0">R25</text>
<g class="stroked-text"><desc>R25</desc>
<path d="M46692857 87672380
L47026190 87196190
" />
<path d="M47264285 87672380
L47264285 86672380
L46883333 86672380
L46788095 86720000
L46740476 86767619
L46692857 86862857
L46692857 87005714
L46740476 87100952
L46788095 87148571
L46883333 87196190
L47264285 87196190
" />
<path d="M46311904 86767619
L46264285 86720000
L46169047 86672380
L45930952 86672380
L45835714 86720000
L45788095 86767619
L45740476 86862857
L45740476 86958095
L45788095 87100952
L46359523 87672380
L45740476 87672380
" />
<path d="M44835714 86672380
L45311904 86672380
L45359523 87148571
L45311904 87100952
L45216666 87053333
L44978571 87053333
L44883333 87100952
L44835714 87148571
L44788095 87243809
L44788095 87481904
L44835714 87577142
L44883333 87624761
L44978571 87672380
L45216666 87672380
L45311904 87624761
L45359523 87577142
" />
</g><g transform="rotate(-90.000000 55175000.000000 86075000.000000)">
<text x="55175000.000000" y="86575000.000000"
transform="scale(-1 1) translate(-110350000.000000 0)"
textLength="1805000.000000" font-size="1333333.000000" lengthAdjust="spacingAndGlyphs"
text-anchor="middle" opacity="0">U2</text>
</g>
<g class="stroked-text"><desc>U2</desc>
<path d="M54627380 85313095
L55436904 85313095
L55532142 85360714
L55579761 85408333
L55627380 85503571
L55627380 85694047
L55579761 85789285
L55532142 85836904
L55436904 85884523
L54627380 85884523
" />
<path d="M54722619 86313095
L54675000 86360714
L54627380 86455952
L54627380 86694047
L54675000 86789285
L54722619 86836904
L54817857 86884523
L54913095 86884523
L55055952 86836904
L55627380 86265476
L55627380 86884523
" />
</g><g transform="rotate(-90.000000 71970000.000000 71650000.000000)">
<text x="71970000.000000" y="72150000.000000"
transform="scale(-1 1) translate(-143940000.000000 0)"
textLength="1757381.000000" font-size="1333333.000000" lengthAdjust="spacingAndGlyphs"
text-anchor="middle" opacity="0">R4</text>
</g>
<g class="stroked-text"><desc>R4</desc>
<path d="M72422380 71483333
L71946190 71150000
" />
<path d="M72422380 70911904
L71422380 70911904
L71422380 71292857
L71470000 71388095
L71517619 71435714
L71612857 71483333
L71755714 71483333
L71850952 71435714
L71898571 71388095
L71946190 71292857
L71946190 70911904
" />
<path d="M71755714 72340476
L72422380 72340476
" />
<path d="M71374761 72102380
L72089047 71864285
L72089047 72483333
" />
</g><g transform="rotate(-90.000000 66000000.000000 80650000.000000)">
<text x="66000000.000000" y="81150000.000000"
transform="scale(-1 1) translate(-132000000.000000 0)"
textLength="1805000.000000" font-size="1333333.000000" lengthAdjust="spacingAndGlyphs"
text-anchor="middle" opacity="0">U5</text>
</g>
<g class="stroked-text"><desc>U5</desc>
<path d="M65452380 79888095
L66261904 79888095
L66357142 79935714
L66404761 79983333
L66452380 80078571
L66452380 80269047
L66404761 80364285
L66357142 80411904
L66261904 80459523
L65452380 80459523
" />
<path d="M65452380 81411904
L65452380 80935714
L65928571 80888095
L65880952 80935714
L65833333 81030952
L65833333 81269047
L65880952 81364285
L65928571 81411904
L66023809 81459523
L66261904 81459523
L66357142 81411904
L66404761 81364285
L66452380 81269047
L66452380 81030952
L66404761 80935714
L66357142 80888095
" />
</g><text x="69100000.000000" y="66562989.000000"
transform="scale(-1 1) translate(-138200000.000000 0)"
textLength="2709762.000000" font-size="1333333.000000" lengthAdjust="spacingAndGlyphs"
text-anchor="middle" opacity="0">C35</text>
<g class="stroked-text"><desc>C35</desc>
<path d="M69742857 66420131
L69790476 66467750
L69933333 66515369
L70028571 66515369
L70171428 66467750
L70266666 66372512
L70314285 66277274
L70361904 66086798
L70361904 65943941
L70314285 65753465
L70266666 65658227
L70171428 65562989
L70028571 65515369
L69933333 65515369
L69790476 65562989
L69742857 65610608
" />
<path d="M69409523 65515369
L68790476 65515369
L69123809 65896322
L68980952 65896322
L68885714 65943941
L68838095 65991560
L68790476 66086798
L68790476 66324893
L68838095 66420131
L68885714 66467750
L68980952 66515369
L69266666 66515369
L69361904 66467750
L69409523 66420131
" />
<path d="M67885714 65515369
L68361904 65515369
L68409523 65991560
L68361904 65943941
L68266666 65896322
L68028571 65896322
L67933333 65943941
L67885714 65991560
L67838095 66086798
L67838095 66324893
L67885714 66420131
L67933333 66467750
L68028571 66515369
L68266666 66515369
L68361904 66467750
L68409523 66420131
" />
</g><g transform="rotate(-90.000000 42910000.000000 42500000.000000)">
<text x="42910000.000000" y="43000000.000000"
transform="scale(-1 1) translate(-85820000.000000 0)"
textLength="1757381.000000" font-size="1333333.000000" lengthAdjust="spacingAndGlyphs"
text-anchor="middle" opacity="0">D1</text>
</g>
<g class="stroked-text"><desc>D1</desc>
<path d="M43362380 41761904
L42362380 41761904
L42362380 42000000
L42410000 42142857
L42505238 42238095
L42600476 42285714
L42790952 42333333
L42933809 42333333
L43124285 42285714
L43219523 42238095
L43314761 42142857
L43362380 42000000
L43362380 41761904
" />
<path d="M43362380 43285714
L43362380 42714285
" />
<path d="M43362380 43000000
L42362380 43000000
L42505238 42904761
L42600476 42809523
L42648095 42714285
" />
</g><g transform="rotate(-90.000000 67470000.000000 79950000.000000)">
<text x="67470000.000000" y="80450000.000000"
transform="scale(-1 1) translate(-134940000.000000 0)"
textLength="2709762.000000" font-size="1333333.000000" lengthAdjust="spacingAndGlyphs"
text-anchor="middle" opacity="0">R14</text>
</g>
<g class="stroked-text"><desc>R14</desc>
<path d="M67922380 79307142
L67446190 78973809
" />
<path d="M67922380 78735714
L66922380 78735714
L66922380 79116666
L66970000 79211904
L67017619 79259523
L67112857 79307142
L67255714 79307142
L67350952 79259523
L67398571 79211904
L67446190 79116666
L67446190 78735714
" />
<path d="M67922380 80259523
L67922380 79688095
" />
<path d="M67922380 79973809
L66922380 79973809
L67065238 79878571
L67160476 79783333
L67208095 79688095
" />
<path d="M67255714 81116666
L67922380 81116666
" />
<path d="M66874761 80878571
L67589047 80640476
L67589047 81259523
" />
</g><text x="75750000.000000" y="43020000.000000"
transform="scale(-1 1) translate(-151500000.000000 0)"
textLength="2709762.000000" font-size="1333333.000000" lengthAdjust="spacingAndGlyphs"
text-anchor="middle" opacity="0">R83</text>
<g class="stroked-text"><desc>R83</desc>
<path d="M76392857 42972380
L76726190 42496190
" />
<path d="M76964285 42972380
L76964285 41972380
L76583333 41972380
L76488095 42020000
L76440476 42067619
L76392857 42162857
L76392857 42305714
L76440476 42400952
L76488095 42448571
L76583333 42496190
L76964285 42496190
" />
<path d="M75821428 42400952
L75916666 42353333
L75964285 42305714
L76011904 42210476
L76011904 42162857
L75964285 42067619
L75916666 42020000
L75821428 41972380
L75630952 41972380
L75535714 42020000
L75488095 42067619
L75440476 42162857
L75440476 42210476
L75488095 42305714
L75535714 42353333
L75630952 42400952
L75821428 42400952
L75916666 42448571
L75964285 42496190
L76011904 42591428
L76011904 42781904
L75964285 42877142
L75916666 42924761
L75821428 42972380
L75630952 42972380
L75535714 42924761
L75488095 42877142
L75440476 42781904
L75440476 42591428
L75488095 42496190
L75535714 42448571
L75630952 42400952
" />
<path d="M75107142 41972380
L74488095 41972380
L74821428 42353333
L74678571 42353333
L74583333 42400952
L74535714 42448571
L74488095 42543809
L74488095 42781904
L74535714 42877142
L74583333 42924761
L74678571 42972380
L74964285 42972380
L75059523 42924761
L75107142 42877142
" />
</g><g transform="rotate(-90.000000 51480000.000000 43800000.000000)">
<text x="51480000.000000" y="44300000.000000"
transform="scale(-1 1) translate(-102960000.000000 0)"
textLength="2709762.000000" font-size="1333333.000000" lengthAdjust="spacingAndGlyphs"
text-anchor="middle" opacity="0">R87</text>
</g>
<g class="stroked-text"><desc>R87</desc>
<path d="M51932380 43157142
L51456190 42823809
" />
<path d="M51932380 42585714
L50932380 42585714
L50932380 42966666
L50980000 43061904
L51027619 43109523
L51122857 43157142
L51265714 43157142
L51360952 43109523
L51408571 43061904
L51456190 42966666
L51456190 42585714
" />
<path d="M51360952 43728571
L51313333 43633333
L51265714 43585714
L51170476 43538095
L51122857 43538095
L51027619 43585714
L50980000 43633333
L50932380 43728571
L50932380 43919047
L50980000 44014285
L51027619 44061904
L51122857 44109523
L51170476 44109523
L51265714 44061904
L51313333 44014285
L51360952 43919047
L51360952 43728571
L51408571 43633333
L51456190 43585714
L51551428 43538095
L51741904 43538095
L51837142 43585714
L51884761 43633333
L51932380 43728571
L51932380 43919047
L51884761 44014285
L51837142 44061904
L51741904 44109523
L51551428 44109523
L51456190 44061904
L51408571 44014285
L51360952 43919047
" />
<path d="M50932380 44442857
L50932380 45109523
L51932380 44680952
" />
</g><text x="70750000.000000" y="45270000.000000"
transform="scale(-1 1) translate(-141500000.000000 0)"
textLength="2709762.000000" font-size="1333333.000000" lengthAdjust="spacingAndGlyphs"
text-anchor="middle" opacity="0">C37</text>
<g class="stroked-text"><desc>C37</desc>
<path d="M71392857 45127142
L71440476 45174761
L71583333 45222380
L71678571 45222380
L71821428 45174761
L71916666 45079523
L71964285 44984285
L72011904 44793809
L72011904 44650952
L71964285 44460476
L71916666 44365238
L71821428 44270000
L71678571 44222380
L71583333 44222380
L71440476 44270000
L71392857 44317619
" />
<path d="M71059523 44222380
L70440476 44222380
L70773809 44603333
L70630952 44603333
L70535714 44650952
L70488095 44698571
L70440476 44793809
L70440476 45031904
L70488095 45127142
L70535714 45174761
L70630952 45222380
L70916666 45222380
L71011904 45174761
L71059523 45127142
" />
<path d="M70107142 44222380
L69440476 44222380
L69869047 45222380
" />
</g><g transform="rotate(-90.000000 54900000.000000 77950000.000000)">
<text x="54900000.000000" y="78450000.000000"
transform="scale(-1 1) translate(-109800000.000000 0)"
textLength="1805000.000000" font-size="1333333.000000" lengthAdjust="spacingAndGlyphs"
text-anchor="middle" opacity="0">U4</text>
</g>
<g class="stroked-text"><desc>U4</desc>
<path d="M54352380 77188095
L55161904 77188095
L55257142 77235714
L55304761 77283333
L55352380 77378571
L55352380 77569047
L55304761 77664285
L55257142 77711904
L55161904 77759523
L54352380 77759523
" />
<path d="M54685714 78664285
L55352380 78664285
" />
<path d="M54304761 78426190
L55019047 78188095
L55019047 78807142
" />
</g><g transform="rotate(-90.000000 47020000.000000 80175000.000000)">
<text x="47020000.000000" y="80675000.000000"
transform="scale(-1 1) translate(-94040000.000000 0)"
textLength="1757381.000000" font-size="1333333.000000" lengthAdjust="spacingAndGlyphs"
text-anchor="middle" opacity="0">D8</text>
</g>
<g class="stroked-text"><desc>D8</desc>
<path d="M47472380 79436904
L46472380 79436904
L46472380 79675000
L46520000 79817857
L46615238 79913095
L46710476 79960714
L46900952 80008333
L47043809 80008333
L47234285 79960714
L47329523 79913095
L47424761 79817857
L47472380 79675000
L47472380 79436904
" />
<path d="M46900952 80579761
L46853333 80484523
L46805714 80436904
L46710476 80389285
L46662857 80389285
L46567619 80436904
L46520000 80484523
L46472380 80579761
L46472380 80770238
L46520000 80865476
L46567619 80913095
L46662857 80960714
L46710476 80960714
L46805714 80913095
L46853333 80865476
L46900952 80770238
L46900952 80579761
L46948571 80484523
L46996190 80436904
L47091428 80389285
L47281904 80389285
L47377142 80436904
L47424761 80484523
L47472380 80579761
L47472380 80770238
L47424761 80865476
L47377142 80913095
L47281904 80960714
L47091428 80960714
L46996190 80913095
L46948571 80865476
L46900952 80770238
" />
</g><g transform="rotate(-90.000000 43650000.000000 81115000.000000)">
<text x="43650000.000000" y="81615000.000000"
transform="scale(-1 1) translate(-87300000.000000 0)"
textLength="805000.000000" font-size="1333333.000000" lengthAdjust="spacingAndGlyphs"
text-anchor="middle" opacity="0">K</text>
</g>
<g class="stroked-text"><desc>K</desc>
<path d="M44102380 80853095
L43102380 80853095
" />
<path d="M44102380 81424523
L43530952 80995952
" />
<path d="M43102380 81424523
L43673809 80853095
" />
</g><text x="53325000.000000" y="85370000.000000"
transform="scale(-1 1) translate(-106650000.000000 0)"
textLength="2709762.000000" font-size="1333333.000000" lengthAdjust="spacingAndGlyphs"
text-anchor="middle" opacity="0">R11</text>
<g class="stroked-text"><desc>R11</desc>
<path d="M53967857 85322380
L54301190 84846190
" />
<path d="M54539285 85322380
L54539285 84322380
L54158333 84322380
L54063095 84370000
L54015476 84417619
L53967857 84512857
L53967857 84655714
L54015476 84750952
L54063095 84798571
L54158333 84846190
L54539285 84846190
" />
<path d="M53015476 85322380
L53586904 85322380
" />
<path d="M53301190 85322380
L53301190 84322380
L53396428 84465238
L53491666 84560476
L53586904 84608095
" />
<path d="M52063095 85322380
L52634523 85322380
" />
<path d="M52348809 85322380
L52348809 84322380
L52444047 84465238
L52539285 84560476
L52634523 84608095
" />
</g><text x="43650000.000000" y="74770000.000000"
transform="scale(-1 1) translate(-87300000.000000 0)"
textLength="2709762.000000" font-size="1333333.000000" lengthAdjust="spacingAndGlyphs"
text-anchor="middle" opacity="0">R16</text>
<g class="stroked-text"><desc>R16</desc>
<path d="M44292857 74722380
L44626190 74246190
" />
<path d="M44864285 74722380
L44864285 73722380
L44483333 73722380
L44388095 73770000
L44340476 73817619
L44292857 73912857
L44292857 74055714
L44340476 74150952
L44388095 74198571
L44483333 74246190
L44864285 74246190
" />
<path d="M43340476 74722380
L43911904 74722380
" />
<path d="M43626190 74722380
L43626190 73722380
L43721428 73865238
L43816666 73960476
L43911904 74008095
" />
<path d="M42483333 73722380
L42673809 73722380
L42769047 73770000
L42816666 73817619
L42911904 73960476
L42959523 74150952
L42959523 74531904
L42911904 74627142
L42864285 74674761
L42769047 74722380
L42578571 74722380
L42483333 74674761
L42435714 74627142
L42388095 74531904
L42388095 74293809
L42435714 74198571
L42483333 74150952
L42578571 74103333
L42769047 74103333
L42864285 74150952
L42911904 74198571
L42959523 74293809
" />
</g><g transform="rotate(-90.000000 69230000.000000 53175000.000000)">
<text x="69230000.000000" y="53675000.000000"
transform="scale(-1 1) translate(-138460000.000000 0)"
textLength="2709762.000000" font-size="1333333.000000" lengthAdjust="spacingAndGlyphs"
text-anchor="middle" opacity="0">C36</text>
</g>
<g class="stroked-text"><desc>C36</desc>
<path d="M69587142 52532142
L69634761 52484523
L69682380 52341666
L69682380 52246428
L69634761 52103571
L69539523 52008333
L69444285 51960714
L69253809 51913095
L69110952 51913095
L68920476 51960714
L68825238 52008333
L68730000 52103571
L68682380 52246428
L68682380 52341666
L68730000 52484523
L68777619 52532142
" />
<path d="M68682380 52865476
L68682380 53484523
L69063333 53151190
L69063333 53294047
L69110952 53389285
L69158571 53436904
L69253809 53484523
L69491904 53484523
L69587142 53436904
L69634761 53389285
L69682380 53294047
L69682380 53008333
L69634761 52913095
L69587142 52865476
" />
<path d="M68682380 54341666
L68682380 54151190
L68730000 54055952
L68777619 54008333
L68920476 53913095
L69110952 53865476
L69491904 53865476
L69587142 53913095
L69634761 53960714
L69682380 54055952
L69682380 54246428
L69634761 54341666
L69587142 54389285
L69491904 54436904
L69253809 54436904
L69158571 54389285
L69110952 54341666
L69063333 54246428
L69063333 54055952
L69110952 53960714
L69158571 53913095
L69253809 53865476
" />
</g><text x="53325000.000000" y="87720000.000000"
transform="scale(-1 1) translate(-106650000.000000 0)"
textLength="1757381.000000" font-size="1333333.000000" lengthAdjust="spacingAndGlyphs"
text-anchor="middle" opacity="0">R9</text>
<g class="stroked-text"><desc>R9</desc>
<path d="M53491666 87672380
L53825000 87196190
" />
<path d="M54063095 87672380
L54063095 86672380
L53682142 86672380
L53586904 86720000
L53539285 86767619
L53491666 86862857
L53491666 87005714
L53539285 87100952
L53586904 87148571
L53682142 87196190
L54063095 87196190
" />
<path d="M53015476 87672380
L52825000 87672380
L52729761 87624761
L52682142 87577142
L52586904 87434285
L52539285 87243809
L52539285 86862857
L52586904 86767619
L52634523 86720000
L52729761 86672380
L52920238 86672380
L53015476 86720000
L53063095 86767619
L53110714 86862857
L53110714 87100952
L53063095 87196190
L53015476 87243809
L52920238 87291428
L52729761 87291428
L52634523 87243809
L52586904 87196190
L52539285 87100952
" />
</g><text x="48300000.000000" y="81755000.000000"
transform="scale(-1 1) translate(-96600000.000000 0)"
textLength="2709762.000000" font-size="1333333.000000" lengthAdjust="spacingAndGlyphs"
text-anchor="middle" opacity="0">C12</text>
<g class="stroked-text"><desc>C12</desc>
<path d="M48942857 81612142
L48990476 81659761
L49133333 81707380
L49228571 81707380
L49371428 81659761
L49466666 81564523
L49514285 81469285
L49561904 81278809
L49561904 81135952
L49514285 80945476
L49466666 80850238
L49371428 80755000
L49228571 80707380
L49133333 80707380
L48990476 80755000
L48942857 80802619
" />
<path d="M47990476 81707380
L48561904 81707380
" />
<path d="M48276190 81707380
L48276190 80707380
L48371428 80850238
L48466666 80945476
L48561904 80993095
" />
<path d="M47609523 80802619
L47561904 80755000
L47466666 80707380
L47228571 80707380
L47133333 80755000
L47085714 80802619
L47038095 80897857
L47038095 80993095
L47085714 81135952
L47657142 81707380
L47038095 81707380
" />
</g><text x="59800000.000000" y="62880000.000000"
transform="scale(-1 1) translate(-119600000.000000 0)"
textLength="2709762.000000" font-size="1333333.000000" lengthAdjust="spacingAndGlyphs"
text-anchor="middle" opacity="0">R86</text>
<g class="stroked-text"><desc>R86</desc>
<path d="M60442857 62832380
L60776190 62356190
" />
<path d="M61014285 62832380
L61014285 61832380
L60633333 61832380
L60538095 61880000
L60490476 61927619
L60442857 62022857
L60442857 62165714
L60490476 62260952
L60538095 62308571
L60633333 62356190
L61014285 62356190
" />
<path d="M59871428 62260952
L59966666 62213333
L60014285 62165714
L60061904 62070476
L60061904 62022857
L60014285 61927619
L59966666 61880000
L59871428 61832380
L59680952 61832380
L59585714 61880000
L59538095 61927619
L59490476 62022857
L59490476 62070476
L59538095 62165714
L59585714 62213333
L59680952 62260952
L59871428 62260952
L59966666 62308571
L60014285 62356190
L60061904 62451428
L60061904 62641904
L60014285 62737142
L59966666 62784761
L59871428 62832380
L59680952 62832380
L59585714 62784761
L59538095 62737142
L59490476 62641904
L59490476 62451428
L59538095 62356190
L59585714 62308571
L59680952 62260952
" />
<path d="M58633333 61832380
L58823809 61832380
L58919047 61880000
L58966666 61927619
L59061904 62070476
L59109523 62260952
L59109523 62641904
L59061904 62737142
L59014285 62784761
L58919047 62832380
L58728571 62832380
L58633333 62784761
L58585714 62737142
L58538095 62641904
L58538095 62403809
L58585714 62308571
L58633333 62260952
L58728571 62213333
L58919047 62213333
L59014285 62260952
L59061904 62308571
L59109523 62403809
" />
</g><g transform="rotate(-90.000000 67820000.000000 49200000.000000)">
<text x="67820000.000000" y="49700000.000000"
transform="scale(-1 1) translate(-135640000.000000 0)"
textLength="2709762.000000" font-size="1333333.000000" lengthAdjust="spacingAndGlyphs"
text-anchor="middle" opacity="0">C39</text>
</g>
<g class="stroked-text"><desc>C39</desc>
<path d="M68177142 48557142
L68224761 48509523
L68272380 48366666
L68272380 48271428
L68224761 48128571
L68129523 48033333
L68034285 47985714
L67843809 47938095
L67700952 47938095
L67510476 47985714
L67415238 48033333
L67320000 48128571
L67272380 48271428
L67272380 48366666
L67320000 48509523
L67367619 48557142
" />
<path d="M67272380 48890476
L67272380 49509523
L67653333 49176190
L67653333 49319047
L67700952 49414285
L67748571 49461904
L67843809 49509523
L68081904 49509523
L68177142 49461904
L68224761 49414285
L68272380 49319047
L68272380 49033333
L68224761 48938095
L68177142 48890476
" />
<path d="M68272380 49985714
L68272380 50176190
L68224761 50271428
L68177142 50319047
L68034285 50414285
L67843809 50461904
L67462857 50461904
L67367619 50414285
L67320000 50366666
L67272380 50271428
L67272380 50080952
L67320000 49985714
L67367619 49938095
L67462857 49890476
L67700952 49890476
L67796190 49938095
L67843809 49985714
L67891428 50080952
L67891428 50271428
L67843809 50366666
L67796190 50414285
L67700952 50461904
" />
</g><text x="70700000.000000" y="36930000.000000"
transform="scale(-1 1) translate(-141400000.000000 0)"
textLength="2709762.000000" font-size="1333333.000000" lengthAdjust="spacingAndGlyphs"
text-anchor="middle" opacity="0">R82</text>
<g class="stroked-text"><desc>R82</desc>
<path d="M71342857 36882380
L71676190 36406190
" />
<path d="M71914285 36882380
L71914285 35882380
L71533333 35882380
L71438095 35930000
L71390476 35977619
L71342857 36072857
L71342857 36215714
L71390476 36310952
L71438095 36358571
L71533333 36406190
L71914285 36406190
" />
<path d="M70771428 36310952
L70866666 36263333
L70914285 36215714
L70961904 36120476
L70961904 36072857
L70914285 35977619
L70866666 35930000
L70771428 35882380
L70580952 35882380
L70485714 35930000
L70438095 35977619
L70390476 36072857
L70390476 36120476
L70438095 36215714
L70485714 36263333
L70580952 36310952
L70771428 36310952
L70866666 36358571
L70914285 36406190
L70961904 36501428
L70961904 36691904
L70914285 36787142
L70866666 36834761
L70771428 36882380
L70580952 36882380
L70485714 36834761
L70438095 36787142
L70390476 36691904
L70390476 36501428
L70438095 36406190
L70485714 36358571
L70580952 36310952
" />
<path d="M70009523 35977619
L69961904 35930000
L69866666 35882380
L69628571 35882380
L69533333 35930000
L69485714 35977619
L69438095 36072857
L69438095 36168095
L69485714 36310952
L70057142 36882380
L69438095 36882380
" />
</g><g transform="rotate(-90.000000 56600000.000000 60000000.000000)">
<text x="56600000.000000" y="60500000.000000"
transform="scale(-1 1) translate(-113200000.000000 0)"
textLength="2757381.000000" font-size="1333333.000000" lengthAdjust="spacingAndGlyphs"
text-anchor="middle" opacity="0">U15</text>
</g>
<g class="stroked-text"><desc>U15</desc>
<path d="M56052380 58761904
L56861904 58761904
L56957142 58809523
L57004761 58857142
L57052380 58952380
L57052380 59142857
L57004761 59238095
L56957142 59285714
L56861904 59333333
L56052380 59333333
" />
<path d="M57052380 60333333
L57052380 59761904
" />
<path d="M57052380 60047619
L56052380 60047619
L56195238 59952380
L56290476 59857142
L56338095 59761904
" />
<path d="M56052380 61238095
L56052380 60761904
L56528571 60714285
L56480952 60761904
L56433333 60857142
L56433333 61095238
L56480952 61190476
L56528571 61238095
L56623809 61285714
L56861904 61285714
L56957142 61238095
L57004761 61190476
L57052380 61095238
L57052380 60857142
L57004761 60761904
L56957142 60714285
" />
</g><g transform="rotate(-90.000000 82670000.000000 47050000.000000)">
<text x="82670000.000000" y="47550000.000000"
transform="scale(-1 1) translate(-165340000.000000 0)"
textLength="2709762.000000" font-size="1333333.000000" lengthAdjust="spacingAndGlyphs"
text-anchor="middle" opacity="0">R78</text>
</g>
<g class="stroked-text"><desc>R78</desc>
<path d="M83122380 46407142
L82646190 46073809
" />
<path d="M83122380 45835714
L82122380 45835714
L82122380 46216666
L82170000 46311904
L82217619 46359523
L82312857 46407142
L82455714 46407142
L82550952 46359523
L82598571 46311904
L82646190 46216666
L82646190 45835714
" />
<path d="M82122380 46740476
L82122380 47407142
L83122380 46978571
" />
<path d="M82550952 47930952
L82503333 47835714
L82455714 47788095
L82360476 47740476
L82312857 47740476
L82217619 47788095
L82170000 47835714
L82122380 47930952
L82122380 48121428
L82170000 48216666
L82217619 48264285
L82312857 48311904
L82360476 48311904
L82455714 48264285
L82503333 48216666
L82550952 48121428
L82550952 47930952
L82598571 47835714
L82646190 47788095
L82741428 47740476
L82931904 47740476
L83027142 47788095
L83074761 47835714
L83122380 47930952
L83122380 48121428
L83074761 48216666
L83027142 48264285
L82931904 48311904
L82741428 48311904
L82646190 48264285
L82598571 48216666
L82550952 48121428
" />
</g><text x="66475000.000000" y="72130000.000000"
transform="scale(-1 1) translate(-132950000.000000 0)"
textLength="2709762.000000" font-size="1333333.000000" lengthAdjust="spacingAndGlyphs"
text-anchor="middle" opacity="0">R12</text>
<g class="stroked-text"><desc>R12</desc>
<path d="M67117857 72082380
L67451190 71606190
" />
<path d="M67689285 72082380
L67689285 71082380
L67308333 71082380
L67213095 71130000
L67165476 71177619
L67117857 71272857
L67117857 71415714
L67165476 71510952
L67213095 71558571
L67308333 71606190
L67689285 71606190
" />
<path d="M66165476 72082380
L66736904 72082380
" />
<path d="M66451190 72082380
L66451190 71082380
L66546428 71225238
L66641666 71320476
L66736904 71368095
" />
<path d="M65784523 71177619
L65736904 71130000
L65641666 71082380
L65403571 71082380
L65308333 71130000
L65260714 71177619
L65213095 71272857
L65213095 71368095
L65260714 71510952
L65832142 72082380
L65213095 72082380
" />
</g><g transform="rotate(-90.000000 45910000.000000 42500000.000000)">
<text x="45910000.000000" y="43000000.000000"
transform="scale(-1 1) translate(-91820000.000000 0)"
textLength="1757381.000000" font-size="1333333.000000" lengthAdjust="spacingAndGlyphs"
text-anchor="middle" opacity="0">D2</text>
</g>
<g class="stroked-text"><desc>D2</desc>
<path d="M46362380 41761904
L45362380 41761904
L45362380 42000000
L45410000 42142857
L45505238 42238095
L45600476 42285714
L45790952 42333333
L45933809 42333333
L46124285 42285714
L46219523 42238095
L46314761 42142857
L46362380 42000000
L46362380 41761904
" />
<path d="M45457619 42714285
L45410000 42761904
L45362380 42857142
L45362380 43095238
L45410000 43190476
L45457619 43238095
L45552857 43285714
L45648095 43285714
L45790952 43238095
L46362380 42666666
L46362380 43285714
" />
</g><g transform="rotate(-90.000000 68330000.000000 47700000.000000)">
<text x="68330000.000000" y="48200000.000000"
transform="scale(-1 1) translate(-136660000.000000 0)"
textLength="2709762.000000" font-size="1333333.000000" lengthAdjust="spacingAndGlyphs"
text-anchor="middle" opacity="0">R67</text>
</g>
<g class="stroked-text"><desc>R67</desc>
<path d="M68782380 47057142
L68306190 46723809
" />
<path d="M68782380 46485714
L67782380 46485714
L67782380 46866666
L67830000 46961904
L67877619 47009523
L67972857 47057142
L68115714 47057142
L68210952 47009523
L68258571 46961904
L68306190 46866666
L68306190 46485714
" />
<path d="M67782380 47914285
L67782380 47723809
L67830000 47628571
L67877619 47580952
L68020476 47485714
L68210952 47438095
L68591904 47438095
L68687142 47485714
L68734761 47533333
L68782380 47628571
L68782380 47819047
L68734761 47914285
L68687142 47961904
L68591904 48009523
L68353809 48009523
L68258571 47961904
L68210952 47914285
L68163333 47819047
L68163333 47628571
L68210952 47533333
L68258571 47485714
L68353809 47438095
" />
<path d="M67782380 48342857
L67782380 49009523
L68782380 48580952
" />
</g><text x="59950000.000000" y="75770000.000000"
transform="scale(-1 1) translate(-119900000.000000 0)"
textLength="1757381.000000" font-size="1333333.000000" lengthAdjust="spacingAndGlyphs"
text-anchor="middle" opacity="0">C9</text>
<g class="stroked-text"><desc>C9</desc>
<path d="M60116666 75627142
L60164285 75674761
L60307142 75722380
L60402380 75722380
L60545238 75674761
L60640476 75579523
L60688095 75484285
L60735714 75293809
L60735714 75150952
L60688095 74960476
L60640476 74865238
L60545238 74770000
L60402380 74722380
L60307142 74722380
L60164285 74770000
L60116666 74817619
" />
<path d="M59640476 75722380
L59450000 75722380
L59354761 75674761
L59307142 75627142
L59211904 75484285
L59164285 75293809
L59164285 74912857
L59211904 74817619
L59259523 74770000
L59354761 74722380
L59545238 74722380
L59640476 74770000
L59688095 74817619
L59735714 74912857
L59735714 75150952
L59688095 75246190
L59640476 75293809
L59545238 75341428
L59354761 75341428
L59259523 75293809
L59211904 75246190
L59164285 75150952
" />
</g><text x="72125000.000000" y="64217989.000000"
transform="scale(-1 1) translate(-144250000.000000 0)"
textLength="2757381.000000" font-size="1333333.000000" lengthAdjust="spacingAndGlyphs"
text-anchor="middle" opacity="0">U14</text>
<g class="stroked-text"><desc>U14</desc>
<path d="M73363095 63170369
L73363095 63979893
L73315476 64075131
L73267857 64122750
L73172619 64170369
L72982142 64170369
L72886904 64122750
L72839285 64075131
L72791666 63979893
L72791666 63170369
" />
<path d="M71791666 64170369
L72363095 64170369
" />
<path d="M72077380 64170369
L72077380 63170369
L72172619 63313227
L72267857 63408465
L72363095 63456084
" />
<path d="M70934523 63503703
L70934523 64170369
" />
<path d="M71172619 63122750
L71410714 63837036
L70791666 63837036
" />
</g><g transform="rotate(-90.000000 50330000.000000 70700000.000000)">
<text x="50330000.000000" y="71200000.000000"
transform="scale(-1 1) translate(-100660000.000000 0)"
textLength="2709762.000000" font-size="1333333.000000" lengthAdjust="spacingAndGlyphs"
text-anchor="middle" opacity="0">R18</text>
</g>
<g class="stroked-text"><desc>R18</desc>
<path d="M50782380 70057142
L50306190 69723809
" />
<path d="M50782380 69485714
L49782380 69485714
L49782380 69866666
L49830000 69961904
L49877619 70009523
L49972857 70057142
L50115714 70057142
L50210952 70009523
L50258571 69961904
L50306190 69866666
L50306190 69485714
" />
<path d="M50782380 71009523
L50782380 70438095
" />
<path d="M50782380 70723809
L49782380 70723809
L49925238 70628571
L50020476 70533333
L50068095 70438095
" />
<path d="M50210952 71580952
L50163333 71485714
L50115714 71438095
L50020476 71390476
L49972857 71390476
L49877619 71438095
L49830000 71485714
L49782380 71580952
L49782380 71771428
L49830000 71866666
L49877619 71914285
L49972857 71961904
L50020476 71961904
L50115714 71914285
L50163333 71866666
L50210952 71771428
L50210952 71580952
L50258571 71485714
L50306190 71438095
L50401428 71390476
L50591904 71390476
L50687142 71438095
L50734761 71485714
L50782380 71580952
L50782380 71771428
L50734761 71866666
L50687142 71914285
L50591904 71961904
L50401428 71961904
L50306190 71914285
L50258571 71866666
L50210952 71771428
" />
</g><text x="70750000.000000" y="39280000.000000"
transform="scale(-1 1) translate(-141500000.000000 0)"
textLength="2709762.000000" font-size="1333333.000000" lengthAdjust="spacingAndGlyphs"
text-anchor="middle" opacity="0">R84</text>
<g class="stroked-text"><desc>R84</desc>
<path d="M71392857 39232380
L71726190 38756190
" />
<path d="M71964285 39232380
L71964285 38232380
L71583333 38232380
L71488095 38280000
L71440476 38327619
L71392857 38422857
L71392857 38565714
L71440476 38660952
L71488095 38708571
L71583333 38756190
L71964285 38756190
" />
<path d="M70821428 38660952
L70916666 38613333
L70964285 38565714
L71011904 38470476
L71011904 38422857
L70964285 38327619
L70916666 38280000
L70821428 38232380
L70630952 38232380
L70535714 38280000
L70488095 38327619
L70440476 38422857
L70440476 38470476
L70488095 38565714
L70535714 38613333
L70630952 38660952
L70821428 38660952
L70916666 38708571
L70964285 38756190
L71011904 38851428
L71011904 39041904
L70964285 39137142
L70916666 39184761
L70821428 39232380
L70630952 39232380
L70535714 39184761
L70488095 39137142
L70440476 39041904
L70440476 38851428
L70488095 38756190
L70535714 38708571
L70630952 38660952
" />
<path d="M69583333 38565714
L69583333 39232380
" />
<path d="M69821428 38184761
L70059523 38899047
L69440476 38899047
" />
</g><text x="75750000.000000" y="45420000.000000"
transform="scale(-1 1) translate(-151500000.000000 0)"
textLength="2709762.000000" font-size="1333333.000000" lengthAdjust="spacingAndGlyphs"
text-anchor="middle" opacity="0">R71</text>
<g class="stroked-text"><desc>R71</desc>
<path d="M76392857 45372380
L76726190 44896190
" />
<path d="M76964285 45372380
L76964285 44372380
L76583333 44372380
L76488095 44420000
L76440476 44467619
L76392857 44562857
L76392857 44705714
L76440476 44800952
L76488095 44848571
L76583333 44896190
L76964285 44896190
" />
<path d="M76059523 44372380
L75392857 44372380
L75821428 45372380
" />
<path d="M74488095 45372380
L75059523 45372380
" />
<path d="M74773809 45372380
L74773809 44372380
L74869047 44515238
L74964285 44610476
L75059523 44658095
" />
</g><text x="64000000.000000" y="59120000.000000"
transform="scale(-1 1) translate(-128000000.000000 0)"
textLength="2709762.000000" font-size="1333333.000000" lengthAdjust="spacingAndGlyphs"
text-anchor="middle" opacity="0">C38</text>
<g class="stroked-text"><desc>C38</desc>
<path d="M64642857 58977142
L64690476 59024761
L64833333 59072380
L64928571 59072380
L65071428 59024761
L65166666 58929523
L65214285 58834285
L65261904 58643809
L65261904 58500952
L65214285 58310476
L65166666 58215238
L65071428 58120000
L64928571 58072380
L64833333 58072380
L64690476 58120000
L64642857 58167619
" />
<path d="M64309523 58072380
L63690476 58072380
L64023809 58453333
L63880952 58453333
L63785714 58500952
L63738095 58548571
L63690476 58643809
L63690476 58881904
L63738095 58977142
L63785714 59024761
L63880952 59072380
L64166666 59072380
L64261904 59024761
L64309523 58977142
" />
<path d="M63119047 58500952
L63214285 58453333
L63261904 58405714
L63309523 58310476
L63309523 58262857
L63261904 58167619
L63214285 58120000
L63119047 58072380
L62928571 58072380
L62833333 58120000
L62785714 58167619
L62738095 58262857
L62738095 58310476
L62785714 58405714
L62833333 58453333
L62928571 58500952
L63119047 58500952
L63214285 58548571
L63261904 58596190
L63309523 58691428
L63309523 58881904
L63261904 58977142
L63214285 59024761
L63119047 59072380
L62928571 59072380
L62833333 59024761
L62785714 58977142
L62738095 58881904
L62738095 58691428
L62785714 58596190
L62833333 58548571
L62928571 58500952
" />
</g><text x="43600000.000000" y="77170000.000000"
transform="scale(-1 1) translate(-87200000.000000 0)"
textLength="2709762.000000" font-size="1333333.000000" lengthAdjust="spacingAndGlyphs"
text-anchor="middle" opacity="0">R24</text>
<g class="stroked-text"><desc>R24</desc>
<path d="M44242857 77122380
L44576190 76646190
" />
<path d="M44814285 77122380
L44814285 76122380
L44433333 76122380
L44338095 76170000
L44290476 76217619
L44242857 76312857
L44242857 76455714
L44290476 76550952
L44338095 76598571
L44433333 76646190
L44814285 76646190
" />
<path d="M43861904 76217619
L43814285 76170000
L43719047 76122380
L43480952 76122380
L43385714 76170000
L43338095 76217619
L43290476 76312857
L43290476 76408095
L43338095 76550952
L43909523 77122380
L43290476 77122380
" />
<path d="M42433333 76455714
L42433333 77122380
" />
<path d="M42671428 76074761
L42909523 76789047
L42290476 76789047
" />
</g><g transform="rotate(-90.000000 51750000.000000 70650000.000000)">
<text x="51750000.000000" y="71150000.000000"
transform="scale(-1 1) translate(-103500000.000000 0)"
textLength="1757381.000000" font-size="1333333.000000" lengthAdjust="spacingAndGlyphs"
text-anchor="middle" opacity="0">D3</text>
</g>
<g class="stroked-text"><desc>D3</desc>
<path d="M52202380 69911904
L51202380 69911904
L51202380 70150000
L51250000 70292857
L51345238 70388095
L51440476 70435714
L51630952 70483333
L51773809 70483333
L51964285 70435714
L52059523 70388095
L52154761 70292857
L52202380 70150000
L52202380 69911904
" />
<path d="M51202380 70816666
L51202380 71435714
L51583333 71102380
L51583333 71245238
L51630952 71340476
L51678571 71388095
L51773809 71435714
L52011904 71435714
L52107142 71388095
L52154761 71340476
L52202380 71245238
L52202380 70959523
L52154761 70864285
L52107142 70816666
" />
</g><text x="75650000.000000" y="77670000.000000"
transform="scale(-1 1) translate(-151300000.000000 0)"
textLength="2709762.000000" font-size="1333333.000000" lengthAdjust="spacingAndGlyphs"
text-anchor="middle" opacity="0">C14</text>
<g class="stroked-text"><desc>C14</desc>
<path d="M76292857 77527142
L76340476 77574761
L76483333 77622380
L76578571 77622380
L76721428 77574761
L76816666 77479523
L76864285 77384285
L76911904 77193809
L76911904 77050952
L76864285 76860476
L76816666 76765238
L76721428 76670000
L76578571 76622380
L76483333 76622380
L76340476 76670000
L76292857 76717619
" />
<path d="M75340476 77622380
L75911904 77622380
" />
<path d="M75626190 77622380
L75626190 76622380
L75721428 76765238
L75816666 76860476
L75911904 76908095
" />
<path d="M74483333 76955714
L74483333 77622380
" />
<path d="M74721428 76574761
L74959523 77289047
L74340476 77289047
" />
</g><text x="69470000.000000" y="86900000.000000"
transform="scale(-1 1) translate(-138940000.000000 0)"
textLength="2709762.000000" font-size="1333333.000000" lengthAdjust="spacingAndGlyphs"
text-anchor="middle" opacity="0">R39</text>
<g class="stroked-text"><desc>R39</desc>
<path d="M70112857 86852380
L70446190 86376190
" />
<path d="M70684285 86852380
L70684285 85852380
L70303333 85852380
L70208095 85900000
L70160476 85947619
L70112857 86042857
L70112857 86185714
L70160476 86280952
L70208095 86328571
L70303333 86376190
L70684285 86376190
" />
<path d="M69779523 85852380
L69160476 85852380
L69493809 86233333
L69350952 86233333
L69255714 86280952
L69208095 86328571
L69160476 86423809
L69160476 86661904
L69208095 86757142
L69255714 86804761
L69350952 86852380
L69636666 86852380
L69731904 86804761
L69779523 86757142
" />
<path d="M68684285 86852380
L68493809 86852380
L68398571 86804761
L68350952 86757142
L68255714 86614285
L68208095 86423809
L68208095 86042857
L68255714 85947619
L68303333 85900000
L68398571 85852380
L68589047 85852380
L68684285 85900000
L68731904 85947619
L68779523 86042857
L68779523 86280952
L68731904 86376190
L68684285 86423809
L68589047 86471428
L68398571 86471428
L68303333 86423809
L68255714 86376190
L68208095 86280952
" />
</g><g transform="rotate(-90.000000 63980000.000000 42950000.000000)">
<text x="63980000.000000" y="43450000.000000"
transform="scale(-1 1) translate(-127960000.000000 0)"
textLength="2709762.000000" font-size="1333333.000000" lengthAdjust="spacingAndGlyphs"
text-anchor="middle" opacity="0">R76</text>
</g>
<g class="stroked-text"><desc>R76</desc>
<path d="M64432380 42307142
L63956190 41973809
" />
<path d="M64432380 41735714
L63432380 41735714
L63432380 42116666
L63480000 42211904
L63527619 42259523
L63622857 42307142
L63765714 42307142
L63860952 42259523
L63908571 42211904
L63956190 42116666
L63956190 41735714
" />
<path d="M63432380 42640476
L63432380 43307142
L64432380 42878571
" />
<path d="M63432380 44116666
L63432380 43926190
L63480000 43830952
L63527619 43783333
L63670476 43688095
L63860952 43640476
L64241904 43640476
L64337142 43688095
L64384761 43735714
L64432380 43830952
L64432380 44021428
L64384761 44116666
L64337142 44164285
L64241904 44211904
L64003809 44211904
L63908571 44164285
L63860952 44116666
L63813333 44021428
L63813333 43830952
L63860952 43735714
L63908571 43688095
L64003809 43640476
" />
</g><g transform="rotate(-90.000000 78920000.000000 80240000.000000)">
<text x="78920000.000000" y="80740000.000000"
transform="scale(-1 1) translate(-157840000.000000 0)"
textLength="2709762.000000" font-size="1333333.000000" lengthAdjust="spacingAndGlyphs"
text-anchor="middle" opacity="0">D10</text>
</g>
<g class="stroked-text"><desc>D10</desc>
<path d="M79372380 79025714
L78372380 79025714
L78372380 79263809
L78420000 79406666
L78515238 79501904
L78610476 79549523
L78800952 79597142
L78943809 79597142
L79134285 79549523
L79229523 79501904
L79324761 79406666
L79372380 79263809
L79372380 79025714
" />
<path d="M79372380 80549523
L79372380 79978095
" />
<path d="M79372380 80263809
L78372380 80263809
L78515238 80168571
L78610476 80073333
L78658095 79978095
" />
<path d="M78372380 81168571
L78372380 81263809
L78420000 81359047
L78467619 81406666
L78562857 81454285
L78753333 81501904
L78991428 81501904
L79181904 81454285
L79277142 81406666
L79324761 81359047
L79372380 81263809
L79372380 81168571
L79324761 81073333
L79277142 81025714
L79181904 80978095
L78991428 80930476
L78753333 80930476
L78562857 80978095
L78467619 81025714
L78420000 81073333
L78372380 81168571
" />
</g><g transform="rotate(-90.000000 75550000.000000 81180000.000000)">
<text x="75550000.000000" y="81680000.000000"
transform="scale(-1 1) translate(-151100000.000000 0)"
textLength="805000.000000" font-size="1333333.000000" lengthAdjust="spacingAndGlyphs"
text-anchor="middle" opacity="0">K</text>
</g>
<g class="stroked-text"><desc>K</desc>
<path d="M76002380 80918095
L75002380 80918095
" />
<path d="M76002380 81489523
L75430952 81060952
" />
<path d="M75002380 81489523
L75573809 80918095
" />
</g><g transform="rotate(-90.000000 60550000.000000 85500000.000000)">
<text x="60550000.000000" y="86000000.000000"
transform="scale(-1 1) translate(-121100000.000000 0)"
textLength="1757381.000000" font-size="1333333.000000" lengthAdjust="spacingAndGlyphs"
text-anchor="middle" opacity="0">D6</text>
</g>
<g class="stroked-text"><desc>D6</desc>
<path d="M61002380 84761904
L60002380 84761904
L60002380 85000000
L60050000 85142857
L60145238 85238095
L60240476 85285714
L60430952 85333333
L60573809 85333333
L60764285 85285714
L60859523 85238095
L60954761 85142857
L61002380 85000000
L61002380 84761904
" />
<path d="M60002380 86190476
L60002380 86000000
L60050000 85904761
L60097619 85857142
L60240476 85761904
L60430952 85714285
L60811904 85714285
L60907142 85761904
L60954761 85809523
L61002380 85904761
L61002380 86095238
L60954761 86190476
L60907142 86238095
L60811904 86285714
L60573809 86285714
L60478571 86238095
L60430952 86190476
L60383333 86095238
L60383333 85904761
L60430952 85809523
L60478571 85761904
L60573809 85714285
" />
</g><text x="73500000.000000" y="84230000.000000"
transform="scale(-1 1) translate(-147000000.000000 0)"
textLength="2709762.000000" font-size="1333333.000000" lengthAdjust="spacingAndGlyphs"
text-anchor="middle" opacity="0">R27</text>
<g class="stroked-text"><desc>R27</desc>
<path d="M74142857 84182380
L74476190 83706190
" />
<path d="M74714285 84182380
L74714285 83182380
L74333333 83182380
L74238095 83230000
L74190476 83277619
L74142857 83372857
L74142857 83515714
L74190476 83610952
L74238095 83658571
L74333333 83706190
L74714285 83706190
" />
<path d="M73761904 83277619
L73714285 83230000
L73619047 83182380
L73380952 83182380
L73285714 83230000
L73238095 83277619
L73190476 83372857
L73190476 83468095
L73238095 83610952
L73809523 84182380
L73190476 84182380
" />
<path d="M72857142 83182380
L72190476 83182380
L72619047 84182380
" />
</g><text x="75950000.000000" y="46200000.000000"
transform="scale(-1 1) translate(-151900000.000000 0)"
textLength="2757381.000000" font-size="1333333.000000" lengthAdjust="spacingAndGlyphs"
text-anchor="middle" opacity="0">U12</text>
<g class="stroked-text"><desc>U12</desc>
<path d="M77188095 45152380
L77188095 45961904
L77140476 46057142
L77092857 46104761
L76997619 46152380
L76807142 46152380
L76711904 46104761
L76664285 46057142
L76616666 45961904
L76616666 45152380
" />
<path d="M75616666 46152380
L76188095 46152380
" />
<path d="M75902380 46152380
L75902380 45152380
L75997619 45295238
L76092857 45390476
L76188095 45438095
" />
<path d="M75235714 45247619
L75188095 45200000
L75092857 45152380
L74854761 45152380
L74759523 45200000
L74711904 45247619
L74664285 45342857
L74664285 45438095
L74711904 45580952
L75283333 46152380
L74664285 46152380
" />
</g><text x="66450000.000000" y="69805000.000000"
transform="scale(-1 1) translate(-132900000.000000 0)"
textLength="2709762.000000" font-size="1333333.000000" lengthAdjust="spacingAndGlyphs"
text-anchor="middle" opacity="0">R10</text>
<g class="stroked-text"><desc>R10</desc>
<path d="M67092857 69757380
L67426190 69281190
" />
<path d="M67664285 69757380
L67664285 68757380
L67283333 68757380
L67188095 68805000
L67140476 68852619
L67092857 68947857
L67092857 69090714
L67140476 69185952
L67188095 69233571
L67283333 69281190
L67664285 69281190
" />
<path d="M66140476 69757380
L66711904 69757380
" />
<path d="M66426190 69757380
L66426190 68757380
L66521428 68900238
L66616666 68995476
L66711904 69043095
" />
<path d="M65521428 68757380
L65426190 68757380
L65330952 68805000
L65283333 68852619
L65235714 68947857
L65188095 69138333
L65188095 69376428
L65235714 69566904
L65283333 69662142
L65330952 69709761
L65426190 69757380
L65521428 69757380
L65616666 69709761
L65664285 69662142
L65711904 69566904
L65759523 69376428
L65759523 69138333
L65711904 68947857
L65664285 68852619
L65616666 68805000
L65521428 68757380
" />
</g><g transform="rotate(-90.000000 64180000.000000 60942989.000000)">
<text x="64180000.000000" y="61442989.000000"
transform="scale(-1 1) translate(-128360000.000000 0)"
textLength="1757381.000000" font-size="1333333.000000" lengthAdjust="spacingAndGlyphs"
text-anchor="middle" opacity="0">C4</text>
</g>
<g class="stroked-text"><desc>C4</desc>
<path d="M64537142 60776322
L64584761 60728703
L64632380 60585846
L64632380 60490608
L64584761 60347750
L64489523 60252512
L64394285 60204893
L64203809 60157274
L64060952 60157274
L63870476 60204893
L63775238 60252512
L63680000 60347750
L63632380 60490608
L63632380 60585846
L63680000 60728703
L63727619 60776322
" />
<path d="M63965714 61633465
L64632380 61633465
" />
<path d="M63584761 61395369
L64299047 61157274
L64299047 61776322
" />
</g><text x="59150000.000000" y="42000000.000000"
transform="scale(-1 1) translate(-118300000.000000 0)"
textLength="2757381.000000" font-size="1333333.000000" lengthAdjust="spacingAndGlyphs"
text-anchor="middle" opacity="0">U11</text>
<g class="stroked-text"><desc>U11</desc>
<path d="M60388095 40952380
L60388095 41761904
L60340476 41857142
L60292857 41904761
L60197619 41952380
L60007142 41952380
L59911904 41904761
L59864285 41857142
L59816666 41761904
L59816666 40952380
" />
<path d="M58816666 41952380
L59388095 41952380
" />
<path d="M59102380 41952380
L59102380 40952380
L59197619 41095238
L59292857 41190476
L59388095 41238095
" />
<path d="M57864285 41952380
L58435714 41952380
" />
<path d="M58150000 41952380
L58150000 40952380
L58245238 41095238
L58340476 41190476
L58435714 41238095
" />
</g><text x="68500000.000000" y="87870000.000000"
transform="scale(-1 1) translate(-137000000.000000 0)"
textLength="2709762.000000" font-size="1333333.000000" lengthAdjust="spacingAndGlyphs"
text-anchor="middle" opacity="0">R21</text>
<g class="stroked-text"><desc>R21</desc>
<path d="M69142857 87822380
L69476190 87346190
" />
<path d="M69714285 87822380
L69714285 86822380
L69333333 86822380
L69238095 86870000
L69190476 86917619
L69142857 87012857
L69142857 87155714
L69190476 87250952
L69238095 87298571
L69333333 87346190
L69714285 87346190
" />
<path d="M68761904 86917619
L68714285 86870000
L68619047 86822380
L68380952 86822380
L68285714 86870000
L68238095 86917619
L68190476 87012857
L68190476 87108095
L68238095 87250952
L68809523 87822380
L68190476 87822380
" />
<path d="M67238095 87822380
L67809523 87822380
" />
<path d="M67523809 87822380
L67523809 86822380
L67619047 86965238
L67714285 87060476
L67809523 87108095
" />
</g><g transform="rotate(-90.000000 70680000.000000 71675000.000000)">
<text x="70680000.000000" y="72175000.000000"
transform="scale(-1 1) translate(-141360000.000000 0)"
textLength="1757381.000000" font-size="1333333.000000" lengthAdjust="spacingAndGlyphs"
text-anchor="middle" opacity="0">R3</text>
</g>
<g class="stroked-text"><desc>R3</desc>
<path d="M71132380 71508333
L70656190 71175000
" />
<path d="M71132380 70936904
L70132380 70936904
L70132380 71317857
L70180000 71413095
L70227619 71460714
L70322857 71508333
L70465714 71508333
L70560952 71460714
L70608571 71413095
L70656190 71317857
L70656190 70936904
" />
<path d="M70132380 71841666
L70132380 72460714
L70513333 72127380
L70513333 72270238
L70560952 72365476
L70608571 72413095
L70703809 72460714
L70941904 72460714
L71037142 72413095
L71084761 72365476
L71132380 72270238
L71132380 71984523
L71084761 71889285
L71037142 71841666
" />
</g></g>
<g style="fill:#000000; fill-opacity:0.0; 
stroke:#000000; stroke-width:120000.000000; stroke-opacity:1; 
stroke-linecap:round; stroke-linejoin:round;">
<path d="M126998477.631085 58361522.368915 A2600000.000000 2600000.000000 0.0 0 0 122560000.000000 60200000.000000" />
<path d="M122559999.000000 60200000.000000 A2600001.000000 2600001.000000 0.0 0 0 126998478.338192 62038478.338192" />
<path d="M127010000 58400000
L127010000 62000000
" />
<path d="M61760000 80577064
L61760000 79122936
" />
<path d="M59940000 80577064
L59940000 79122936
" />
<path d="M45322936 84490000
L46777064 84490000
" />
<path d="M45322936 86310000
L46777064 86310000
" />
<path d="M61135000 86075000
L61135000 88025000
" />
<path d="M56015000 86075000
L56015000 88025000
" />
<path d="M56015000 86075000
L56015000 82625000
" />
<path d="M61135000 86075000
L61135000 84125000
" />
<path d="M69240000 72377064
L69240000 70922936
" />
<path d="M71060000 72377064
L71060000 70922936
" />
<path d="M66840000 80650000
L66840000 77200000
" />
<path d="M66840000 80650000
L66840000 82600000
" />
<path d="M71960000 80650000
L71960000 82600000
" />
<path d="M71960000 80650000
L71960000 78700000
" />
<path d="M68372936 65152989
L69827064 65152989
" />
<path d="M68372936 63332989
L69827064 63332989
" />
<path d="M42060000 45900000
L42060000 40500000
" />
<path d="M42060000 45900000
L38760000 45900000
" />
<path d="M38760000 45900000
L38760000 40500000
" />
<path d="M66560000 80677064
L66560000 79222936
" />
<path d="M64740000 80677064
L64740000 79222936
" />
<path d="M75022936 41610000
L76477064 41610000
" />
<path d="M75022936 39790000
L76477064 39790000
" />
<path d="M52390000 43072936
L52390000 44527064
" />
<path d="M54210000 43072936
L54210000 44527064
" />
<path d="M70022936 42040000
L71477064 42040000
" />
<path d="M70022936 43860000
L71477064 43860000
" />
<path d="M48940000 77950000
L48940000 76000000
" />
<path d="M54060000 77950000
L54060000 81400000
" />
<path d="M54060000 77950000
L54060000 76000000
" />
<path d="M48940000 77950000
L48940000 79900000
" />
<path d="M44550000 79105000
L44550000 81515000
" />
<circle cx="44550000.000000" cy="77635000.000000" r="1470000.000000" /> 
<path d="M52597936 83960000
L54052064 83960000
" />
<path d="M52597936 82140000
L54052064 82140000
" />
<path d="M42922936 71540000
L44377064 71540000
" />
<path d="M42922936 73360000
L44377064 73360000
" />
<path d="M70140000 52447936
L70140000 53902064
" />
<path d="M71960000 52447936
L71960000 53902064
" />
<path d="M52597936 84490000
L54052064 84490000
" />
<path d="M52597936 86310000
L54052064 86310000
" />
<path d="M49027064 83985000
L47572936 83985000
" />
<path d="M49027064 82165000
L47572936 82165000
" />
<path d="M60527064 65110000
L59072936 65110000
" />
<path d="M60527064 63290000
L59072936 63290000
" />
<path d="M65090000 49927064
L65090000 48472936
" />
<path d="M66910000 49927064
L66910000 48472936
" />
<path d="M71427064 37340000
L69972936 37340000
" />
<path d="M71427064 39160000
L69972936 39160000
" />
<path d="M62010000 58200000
L62010000 61800000
" />
<path d="M57559999.000000 60000000.000000 A2600001.000000 2600001.000000 0.0 0 0 61998478.338192 61838478.338192" />
<path d="M61998477.631085 58161522.368915 A2600000.000000 2600000.000000 0.0 0 0 57560000.000000 60000000.000000" />
<path d="M79940000 47777064
L79940000 46322936
" />
<path d="M81760000 47777064
L81760000 46322936
" />
<path d="M67202064 74360000
L65747936 74360000
" />
<path d="M67202064 72540000
L65747936 72540000
" />
<path d="M50060000 39100000
L50060000 44500000
" />
<path d="M46760000 39100000
L50060000 39100000
" />
<path d="M46760000 39100000
L46760000 44500000
" />
<path d="M69240000 46972936
L69240000 48427064
" />
<path d="M71060000 46972936
L71060000 48427064
" />
<path d="M59222936 74360000
L60677064 74360000
" />
<path d="M59222936 72540000
L60677064 72540000
" />
<path d="M69655000 55767989
L69655000 56037989
" />
<path d="M69655000 56037989
L68555000 56037989
" />
<path d="M71155000 55767989
L69655000 55767989
" />
<path d="M69655000 62397989
L66825000 62397989
" />
<path d="M71155000 62667989
L69655000 62667989
" />
<path d="M69655000 62667989
L69655000 62397989
" />
<path d="M53060000 69972936
L53060000 71427064
" />
<path d="M51240000 69972936
L51240000 71427064
" />
<path d="M71477064 39690000
L70022936 39690000
" />
<path d="M71477064 41510000
L70022936 41510000
" />
<path d="M75022936 44010000
L76477064 44010000
" />
<path d="M75022936 42190000
L76477064 42190000
" />
<path d="M40890000 85672936
L40890000 87127064
" />
<path d="M42710000 85672936
L42710000 87127064
" />
<path d="M63272936 55890000
L64727064 55890000
" />
<path d="M63272936 57710000
L64727064 57710000
" />
<path d="M42872936 73940000
L44327064 73940000
" />
<path d="M42872936 75760000
L44327064 75760000
" />
<path d="M47600000 74050000
L47600000 68650000
" />
<path d="M50900000 74050000
L50900000 68650000
" />
<path d="M50900000 74050000
L47600000 74050000
" />
<path d="M74922936 74440000
L76377064 74440000
" />
<path d="M74922936 76260000
L76377064 76260000
" />
<path d="M70197064 87310000
L68742936 87310000
" />
<path d="M70197064 89130000
L68742936 89130000
" />
<path d="M64890000 42222936
L64890000 43677064
" />
<path d="M66710000 42222936
L66710000 43677064
" />
<path d="M76450000 79170000
L76450000 81580000
" />
<circle cx="76450000.000000" cy="77700000.000000" r="1470000.000000" /> 
<path d="M61400000 82100000
L61400000 87500000
" />
<path d="M61400000 82100000
L64700000 82100000
" />
<path d="M64700000 82100000
L64700000 87500000
" />
<path d="M74227064 84640000
L72772936 84640000
" />
<path d="M74227064 86460000
L72772936 86460000
" />
<path d="M75950000 51660000
L77900000 51660000
" />
<path d="M75950000 46540000
L74000000 46540000
" />
<path d="M75950000 46540000
L79400000 46540000
" />
<path d="M75950000 51660000
L74000000 51660000
" />
<path d="M67177064 72035000
L65722936 72035000
" />
<path d="M67177064 70215000
L65722936 70215000
" />
<path d="M65090000 60215925
L65090000 61670053
" />
<path d="M66910000 60215925
L66910000 61670053
" />
<path d="M59150000 42340000
L57200000 42340000
" />
<path d="M59150000 47460000
L57200000 47460000
" />
<path d="M59150000 47460000
L61100000 47460000
" />
<path d="M59150000 42340000
L62600000 42340000
" />
<path d="M67772936 84640000
L69227064 84640000
" />
<path d="M67772936 86460000
L69227064 86460000
" />
<path d="M71590000 70947936
L71590000 72402064
" />
<path d="M73410000 70947936
L73410000 72402064
" />
<g >
</g>
<g >
</g>
<g >
</g>
<g >
</g>
<g >
</g>
<g >
</g>
<g >
</g>
<g >
</g>
<g >
</g>
<g >
</g>
<g >
</g>
<g >
</g>
<g >
</g>
<g >
</g>
<g >
</g>
<g >
</g>
<g >
</g>
<g >
</g>
<g >
</g>
<g >
</g>
<g >
</g>
<g >
</g>
<g >
</g>
<g >
</g>
<g >
</g>
<g >
</g>
<g >
</g>
<g >
</g>
<g >
</g>
<g >
</g>
<g >
</g>
<g >
</g>
<g >
</g>
<g >
</g>
<g >
</g>
<g >
</g>
<g >
</g>
<g >
</g>
<g >
</g>
<g >
</g>
<g >
</g>
<g >
</g>
<g >
</g>
<g >
</g>
<g >
</g>
<g >
</g>
<g >
</g>
<g >
</g>
<g >
</g>
<g >
</g>
<g >
</g>
<g >
</g>
<g >
</g>
<g >
</g>
<g >
</g>
<g >
</g>
<g >
</g>
<g >
</g>
<g >
</g>
<g >
</g>
<g >
</g>
<g >
</g>
<g >
</g>
<g >
</g>
<g >
</g>
<g >
</g>
<g >
</g>
<g >
</g>
<g >
</g>
<g >
</g>
<g >
</g>
<g >
</g>
<g >
</g>
<g >
</g>
<g >
</g>
<g >
</g>
<g >
</g>
<g >
</g>
<g >
</g>
<g >
</g>
<g >
</g>
<g >
</g>
<g >
</g>
<g >
</g>
<g >
</g>
<g >
</g>
<g >
</g>
<g >
</g>
<g >
</g>
<g >
</g>
<g >
</g>
<g >
</g>
<g >
</g>
<g >
</g>
<g >
</g>
<g >
</g>
<g >
</g>
<g >
</g>
<g >
</g>
<g >
</g>
<g >
</g>
<g >
</g>
<g >
</g>
<g >
</g>
<g >
</g>
<g >
</g>
<g >
</g>
<g >
</g>
<g >
</g>
<g >
</g>
<g >
</g>
<g >
</g>
<g >
</g>
<g >
</g>
<g >
</g>
<g >
</g>
<g >
</g>
<g >
</g>
<g >
</g>
<g >
</g>
<g >
</g>
<g >
</g>
<g >
</g>
<g >
</g>
<g >
</g>
<g >
</g>
<g >
</g>
<g >
</g>
<g >
</g>
<g >
</g>
<g >
</g>
<g >
</g>
<g >
</g>
<g >
</g>
<g >
</g>
<g >
</g>
<g >
</g>
<g >
</g>
<g >
</g>
<g >
</g>
<g >
</g>
<g >
</g>
<g >
</g>
<g >
</g>
<g >
</g>
<g >
</g>
<g >
</g>
<g >
</g>
<g >
</g>
<g >
</g>
<g >
</g>
<g >
</g>
<g >
</g>
<g >
</g>
<g >
</g>
<g >
</g>
<g >
</g>
<g >
</g>
<g >
</g>
<g >
</g>
<g >
</g>
<g >
</g>
<g >
</g>
<g >
</g>
<g >
</g>
<g >
</g>
<g >
</g>
<g >
</g>
<g >
</g>
<g >
</g>
<g >
</g>
<g >
</g>
<g >
</g>
<g >
</g>
<g >
</g>
<g >
</g>
</g> 
</svg>
